<?xml version="1.0" encoding="utf-8" standalone="no"?>
<!DOCTYPE svg PUBLIC "-//W3C//DTD SVG 1.1//EN"
  "http://www.w3.org/Graphics/SVG/1.1/DTD/svg11.dtd">
<svg xmlns:xlink="http://www.w3.org/1999/xlink" width="547.2pt" height="324pt" viewBox="0 0 547.2 324" xmlns="http://www.w3.org/2000/svg" version="1.1">
 <metadata>
  <rdf:RDF xmlns:dc="http://purl.org/dc/elements/1.1/" xmlns:cc="http://creativecommons.org/ns#" xmlns:rdf="http://www.w3.org/1999/02/22-rdf-syntax-ns#">
   <cc:Work>
    <dc:type rdf:resource="http://purl.org/dc/dcmitype/StillImage"/>
    <dc:date>2026-10-09T18:04:46.227606</dc:date>
    <dc:format>image/svg+xml</dc:format>
    <dc:creator>
     <cc:Agent>
      <dc:title>Matplotlib v3.10.8, https://matplotlib.org/</dc:title>
     </cc:Agent>
    </dc:creator>
   </cc:Work>
  </rdf:RDF>
 </metadata>
 <defs>
  <style type="text/css">*{stroke-linejoin: round; stroke-linecap: butt}</style>
 </defs>
 <g id="figure_1">
  <g id="patch_1">
   <path d="M 0 324 
L 547.2 324 
L 547.2 0 
L 0 0 
z
" style="fill: #ffffff"/>
  </g>
  <g id="axes_1">
   <g id="patch_2">
    <path d="M 40.88399 286.77226 
L 544.19976 286.77226 
L 544.19976 3.00024 
L 40.88399 3.00024 
z
" style="fill: #ffffff"/>
   </g>
   <g id="matplotlib.axis_1">
    <g id="xtick_1">
     <g id="line2d_1">
      <defs>
       <path id="me7706848b9" d="M 0 0 
L 0 3.5 
" style="stroke: #000000; stroke-width: 0.8"/>
      </defs>
      <g>
       <use xlink:href="#me7706848b9" x="82.826971" y="286.77226" style="stroke: #000000; stroke-width: 0.8"/>
      </g>
     </g>
     <g id="text_1">
      <!-- 1.0 -->
      <g transform="translate(73.285096 302.890385) scale(0.12 -0.12)">
       <defs>
        <path id="DejaVuSans-31" d="M 794 531 
L 1825 531 
L 1825 4091 
L 703 3866 
L 703 4441 
L 1819 4666 
L 2450 4666 
L 2450 531 
L 3481 531 
L 3481 0 
L 794 0 
L 794 531 
z
" transform="scale(0.015625)"/>
        <path id="DejaVuSans-2e" d="M 684 794 
L 1344 794 
L 1344 0 
L 684 0 
L 684 794 
z
" transform="scale(0.015625)"/>
        <path id="DejaVuSans-30" d="M 2034 4250 
Q 1547 4250 1301 3770 
Q 1056 3291 1056 2328 
Q 1056 1369 1301 889 
Q 1547 409 2034 409 
Q 2525 409 2770 889 
Q 3016 1369 3016 2328 
Q 3016 3291 2770 3770 
Q 2525 4250 2034 4250 
z
M 2034 4750 
Q 2819 4750 3233 4129 
Q 3647 3509 3647 2328 
Q 3647 1150 3233 529 
Q 2819 -91 2034 -91 
Q 1250 -91 836 529 
Q 422 1150 422 2328 
Q 422 3509 836 4129 
Q 1250 4750 2034 4750 
z
" transform="scale(0.015625)"/>
       </defs>
       <use xlink:href="#DejaVuSans-31"/>
       <use xlink:href="#DejaVuSans-2e" transform="translate(63.623047 0)"/>
       <use xlink:href="#DejaVuSans-30" transform="translate(95.410156 0)"/>
      </g>
     </g>
    </g>
    <g id="xtick_2">
     <g id="line2d_2">
      <g>
       <use xlink:href="#me7706848b9" x="187.684423" y="286.77226" style="stroke: #000000; stroke-width: 0.8"/>
      </g>
     </g>
     <g id="text_2">
      <!-- 1.5 -->
      <g transform="translate(178.142548 302.890385) scale(0.12 -0.12)">
       <defs>
        <path id="DejaVuSans-35" d="M 691 4666 
L 3169 4666 
L 3169 4134 
L 1269 4134 
L 1269 2991 
Q 1406 3038 1543 3061 
Q 1681 3084 1819 3084 
Q 2600 3084 3056 2656 
Q 3513 2228 3513 1497 
Q 3513 744 3044 326 
Q 2575 -91 1722 -91 
Q 1428 -91 1123 -41 
Q 819 9 494 109 
L 494 744 
Q 775 591 1075 516 
Q 1375 441 1709 441 
Q 2250 441 2565 725 
Q 2881 1009 2881 1497 
Q 2881 1984 2565 2268 
Q 2250 2553 1709 2553 
Q 1456 2553 1204 2497 
Q 953 2441 691 2322 
L 691 4666 
z
" transform="scale(0.015625)"/>
       </defs>
       <use xlink:href="#DejaVuSans-31"/>
       <use xlink:href="#DejaVuSans-2e" transform="translate(63.623047 0)"/>
       <use xlink:href="#DejaVuSans-35" transform="translate(95.410156 0)"/>
      </g>
     </g>
    </g>
    <g id="xtick_3">
     <g id="line2d_3">
      <g>
       <use xlink:href="#me7706848b9" x="292.541875" y="286.77226" style="stroke: #000000; stroke-width: 0.8"/>
      </g>
     </g>
     <g id="text_3">
      <!-- 2.0 -->
      <g transform="translate(283 302.890385) scale(0.12 -0.12)">
       <defs>
        <path id="DejaVuSans-32" d="M 1228 531 
L 3431 531 
L 3431 0 
L 469 0 
L 469 531 
Q 828 903 1448 1529 
Q 2069 2156 2228 2338 
Q 2531 2678 2651 2914 
Q 2772 3150 2772 3378 
Q 2772 3750 2511 3984 
Q 2250 4219 1831 4219 
Q 1534 4219 1204 4116 
Q 875 4013 500 3803 
L 500 4441 
Q 881 4594 1212 4672 
Q 1544 4750 1819 4750 
Q 2544 4750 2975 4387 
Q 3406 4025 3406 3419 
Q 3406 3131 3298 2873 
Q 3191 2616 2906 2266 
Q 2828 2175 2409 1742 
Q 1991 1309 1228 531 
z
" transform="scale(0.015625)"/>
       </defs>
       <use xlink:href="#DejaVuSans-32"/>
       <use xlink:href="#DejaVuSans-2e" transform="translate(63.623047 0)"/>
       <use xlink:href="#DejaVuSans-30" transform="translate(95.410156 0)"/>
      </g>
     </g>
    </g>
    <g id="xtick_4">
     <g id="line2d_4">
      <g>
       <use xlink:href="#me7706848b9" x="397.399327" y="286.77226" style="stroke: #000000; stroke-width: 0.8"/>
      </g>
     </g>
     <g id="text_4">
      <!-- 2.5 -->
      <g transform="translate(387.857452 302.890385) scale(0.12 -0.12)">
       <use xlink:href="#DejaVuSans-32"/>
       <use xlink:href="#DejaVuSans-2e" transform="translate(63.623047 0)"/>
       <use xlink:href="#DejaVuSans-35" transform="translate(95.410156 0)"/>
      </g>
     </g>
    </g>
    <g id="xtick_5">
     <g id="line2d_5">
      <g>
       <use xlink:href="#me7706848b9" x="502.256779" y="286.77226" style="stroke: #000000; stroke-width: 0.8"/>
      </g>
     </g>
     <g id="text_5">
      <!-- 3.0 -->
      <g transform="translate(492.714904 302.890385) scale(0.12 -0.12)">
       <defs>
        <path id="DejaVuSans-33" d="M 2597 2516 
Q 3050 2419 3304 2112 
Q 3559 1806 3559 1356 
Q 3559 666 3084 287 
Q 2609 -91 1734 -91 
Q 1441 -91 1130 -33 
Q 819 25 488 141 
L 488 750 
Q 750 597 1062 519 
Q 1375 441 1716 441 
Q 2309 441 2620 675 
Q 2931 909 2931 1356 
Q 2931 1769 2642 2001 
Q 2353 2234 1838 2234 
L 1294 2234 
L 1294 2753 
L 1863 2753 
Q 2328 2753 2575 2939 
Q 2822 3125 2822 3475 
Q 2822 3834 2567 4026 
Q 2313 4219 1838 4219 
Q 1578 4219 1281 4162 
Q 984 4106 628 3988 
L 628 4550 
Q 988 4650 1302 4700 
Q 1616 4750 1894 4750 
Q 2613 4750 3031 4423 
Q 3450 4097 3450 3541 
Q 3450 3153 3228 2886 
Q 3006 2619 2597 2516 
z
" transform="scale(0.015625)"/>
       </defs>
       <use xlink:href="#DejaVuSans-33"/>
       <use xlink:href="#DejaVuSans-2e" transform="translate(63.623047 0)"/>
       <use xlink:href="#DejaVuSans-30" transform="translate(95.410156 0)"/>
      </g>
     </g>
    </g>
    <g id="text_6">
     <!-- input x -->
     <g transform="translate(271.650625 318.504135) scale(0.12 -0.12)">
      <defs>
       <path id="DejaVuSans-69" d="M 603 3500 
L 1178 3500 
L 1178 0 
L 603 0 
L 603 3500 
z
M 603 4863 
L 1178 4863 
L 1178 4134 
L 603 4134 
L 603 4863 
z
" transform="scale(0.015625)"/>
       <path id="DejaVuSans-6e" d="M 3513 2113 
L 3513 0 
L 2938 0 
L 2938 2094 
Q 2938 2591 2744 2837 
Q 2550 3084 2163 3084 
Q 1697 3084 1428 2787 
Q 1159 2491 1159 1978 
L 1159 0 
L 581 0 
L 581 3500 
L 1159 3500 
L 1159 2956 
Q 1366 3272 1645 3428 
Q 1925 3584 2291 3584 
Q 2894 3584 3203 3211 
Q 3513 2838 3513 2113 
z
" transform="scale(0.015625)"/>
       <path id="DejaVuSans-70" d="M 1159 525 
L 1159 -1331 
L 581 -1331 
L 581 3500 
L 1159 3500 
L 1159 2969 
Q 1341 3281 1617 3432 
Q 1894 3584 2278 3584 
Q 2916 3584 3314 3078 
Q 3713 2572 3713 1747 
Q 3713 922 3314 415 
Q 2916 -91 2278 -91 
Q 1894 -91 1617 61 
Q 1341 213 1159 525 
z
M 3116 1747 
Q 3116 2381 2855 2742 
Q 2594 3103 2138 3103 
Q 1681 3103 1420 2742 
Q 1159 2381 1159 1747 
Q 1159 1113 1420 752 
Q 1681 391 2138 391 
Q 2594 391 2855 752 
Q 3116 1113 3116 1747 
z
" transform="scale(0.015625)"/>
       <path id="DejaVuSans-75" d="M 544 1381 
L 544 3500 
L 1119 3500 
L 1119 1403 
Q 1119 906 1312 657 
Q 1506 409 1894 409 
Q 2359 409 2629 706 
Q 2900 1003 2900 1516 
L 2900 3500 
L 3475 3500 
L 3475 0 
L 2900 0 
L 2900 538 
Q 2691 219 2414 64 
Q 2138 -91 1772 -91 
Q 1169 -91 856 284 
Q 544 659 544 1381 
z
M 1991 3584 
L 1991 3584 
z
" transform="scale(0.015625)"/>
       <path id="DejaVuSans-74" d="M 1172 4494 
L 1172 3500 
L 2356 3500 
L 2356 3053 
L 1172 3053 
L 1172 1153 
Q 1172 725 1289 603 
Q 1406 481 1766 481 
L 2356 481 
L 2356 0 
L 1766 0 
Q 1100 0 847 248 
Q 594 497 594 1153 
L 594 3053 
L 172 3053 
L 172 3500 
L 594 3500 
L 594 4494 
L 1172 4494 
z
" transform="scale(0.015625)"/>
       <path id="DejaVuSans-20" transform="scale(0.015625)"/>
       <path id="DejaVuSans-78" d="M 3513 3500 
L 2247 1797 
L 3578 0 
L 2900 0 
L 1881 1375 
L 863 0 
L 184 0 
L 1544 1831 
L 300 3500 
L 978 3500 
L 1906 2253 
L 2834 3500 
L 3513 3500 
z
" transform="scale(0.015625)"/>
      </defs>
      <use xlink:href="#DejaVuSans-69"/>
      <use xlink:href="#DejaVuSans-6e" transform="translate(27.783203 0)"/>
      <use xlink:href="#DejaVuSans-70" transform="translate(91.162109 0)"/>
      <use xlink:href="#DejaVuSans-75" transform="translate(154.638672 0)"/>
      <use xlink:href="#DejaVuSans-74" transform="translate(218.017578 0)"/>
      <use xlink:href="#DejaVuSans-20" transform="translate(257.226562 0)"/>
      <use xlink:href="#DejaVuSans-78" transform="translate(289.013672 0)"/>
     </g>
    </g>
   </g>
   <g id="matplotlib.axis_2">
    <g id="ytick_1">
     <g id="line2d_6">
      <defs>
       <path id="ma3933ebbea" d="M 0 0 
L -3.5 0 
" style="stroke: #000000; stroke-width: 0.8"/>
      </defs>
      <g>
       <use xlink:href="#ma3933ebbea" x="40.88399" y="262.096432" style="stroke: #000000; stroke-width: 0.8"/>
      </g>
     </g>
     <g id="text_7">
      <!-- 0 -->
      <g transform="translate(26.24899 266.655495) scale(0.12 -0.12)">
       <use xlink:href="#DejaVuSans-30"/>
      </g>
     </g>
    </g>
    <g id="ytick_2">
     <g id="line2d_7">
      <g>
       <use xlink:href="#ma3933ebbea" x="40.88399" y="212.744777" style="stroke: #000000; stroke-width: 0.8"/>
      </g>
     </g>
     <g id="text_8">
      <!-- 2 -->
      <g transform="translate(26.24899 217.303839) scale(0.12 -0.12)">
       <use xlink:href="#DejaVuSans-32"/>
      </g>
     </g>
    </g>
    <g id="ytick_3">
     <g id="line2d_8">
      <g>
       <use xlink:href="#ma3933ebbea" x="40.88399" y="163.393121" style="stroke: #000000; stroke-width: 0.8"/>
      </g>
     </g>
     <g id="text_9">
      <!-- 4 -->
      <g transform="translate(26.24899 167.952183) scale(0.12 -0.12)">
       <defs>
        <path id="DejaVuSans-34" d="M 2419 4116 
L 825 1625 
L 2419 1625 
L 2419 4116 
z
M 2253 4666 
L 3047 4666 
L 3047 1625 
L 3713 1625 
L 3713 1100 
L 3047 1100 
L 3047 0 
L 2419 0 
L 2419 1100 
L 313 1100 
L 313 1709 
L 2253 4666 
z
" transform="scale(0.015625)"/>
       </defs>
       <use xlink:href="#DejaVuSans-34"/>
      </g>
     </g>
    </g>
    <g id="ytick_4">
     <g id="line2d_9">
      <g>
       <use xlink:href="#ma3933ebbea" x="40.88399" y="114.041465" style="stroke: #000000; stroke-width: 0.8"/>
      </g>
     </g>
     <g id="text_10">
      <!-- 6 -->
      <g transform="translate(26.24899 118.600528) scale(0.12 -0.12)">
       <defs>
        <path id="DejaVuSans-36" d="M 2113 2584 
Q 1688 2584 1439 2293 
Q 1191 2003 1191 1497 
Q 1191 994 1439 701 
Q 1688 409 2113 409 
Q 2538 409 2786 701 
Q 3034 994 3034 1497 
Q 3034 2003 2786 2293 
Q 2538 2584 2113 2584 
z
M 3366 4563 
L 3366 3988 
Q 3128 4100 2886 4159 
Q 2644 4219 2406 4219 
Q 1781 4219 1451 3797 
Q 1122 3375 1075 2522 
Q 1259 2794 1537 2939 
Q 1816 3084 2150 3084 
Q 2853 3084 3261 2657 
Q 3669 2231 3669 1497 
Q 3669 778 3244 343 
Q 2819 -91 2113 -91 
Q 1303 -91 875 529 
Q 447 1150 447 2328 
Q 447 3434 972 4092 
Q 1497 4750 2381 4750 
Q 2619 4750 2861 4703 
Q 3103 4656 3366 4563 
z
" transform="scale(0.015625)"/>
       </defs>
       <use xlink:href="#DejaVuSans-36"/>
      </g>
     </g>
    </g>
    <g id="ytick_5">
     <g id="line2d_10">
      <g>
       <use xlink:href="#ma3933ebbea" x="40.88399" y="64.68981" style="stroke: #000000; stroke-width: 0.8"/>
      </g>
     </g>
     <g id="text_11">
      <!-- 8 -->
      <g transform="translate(26.24899 69.248872) scale(0.12 -0.12)">
       <defs>
        <path id="DejaVuSans-38" d="M 2034 2216 
Q 1584 2216 1326 1975 
Q 1069 1734 1069 1313 
Q 1069 891 1326 650 
Q 1584 409 2034 409 
Q 2484 409 2743 651 
Q 3003 894 3003 1313 
Q 3003 1734 2745 1975 
Q 2488 2216 2034 2216 
z
M 1403 2484 
Q 997 2584 770 2862 
Q 544 3141 544 3541 
Q 544 4100 942 4425 
Q 1341 4750 2034 4750 
Q 2731 4750 3128 4425 
Q 3525 4100 3525 3541 
Q 3525 3141 3298 2862 
Q 3072 2584 2669 2484 
Q 3125 2378 3379 2068 
Q 3634 1759 3634 1313 
Q 3634 634 3220 271 
Q 2806 -91 2034 -91 
Q 1263 -91 848 271 
Q 434 634 434 1313 
Q 434 1759 690 2068 
Q 947 2378 1403 2484 
z
M 1172 3481 
Q 1172 3119 1398 2916 
Q 1625 2713 2034 2713 
Q 2441 2713 2670 2916 
Q 2900 3119 2900 3481 
Q 2900 3844 2670 4047 
Q 2441 4250 2034 4250 
Q 1625 4250 1398 4047 
Q 1172 3844 1172 3481 
z
" transform="scale(0.015625)"/>
       </defs>
       <use xlink:href="#DejaVuSans-38"/>
      </g>
     </g>
    </g>
    <g id="ytick_6">
     <g id="line2d_11">
      <g>
       <use xlink:href="#ma3933ebbea" x="40.88399" y="15.338154" style="stroke: #000000; stroke-width: 0.8"/>
      </g>
     </g>
     <g id="text_12">
      <!-- 10 -->
      <g transform="translate(18.61399 19.897216) scale(0.12 -0.12)">
       <use xlink:href="#DejaVuSans-31"/>
       <use xlink:href="#DejaVuSans-30" transform="translate(63.623047 0)"/>
      </g>
     </g>
    </g>
    <g id="text_13">
     <!-- output y -->
     <g transform="translate(12.118365 170.134062) rotate(-90) scale(0.12 -0.12)">
      <defs>
       <path id="DejaVuSans-6f" d="M 1959 3097 
Q 1497 3097 1228 2736 
Q 959 2375 959 1747 
Q 959 1119 1226 758 
Q 1494 397 1959 397 
Q 2419 397 2687 759 
Q 2956 1122 2956 1747 
Q 2956 2369 2687 2733 
Q 2419 3097 1959 3097 
z
M 1959 3584 
Q 2709 3584 3137 3096 
Q 3566 2609 3566 1747 
Q 3566 888 3137 398 
Q 2709 -91 1959 -91 
Q 1206 -91 779 398 
Q 353 888 353 1747 
Q 353 2609 779 3096 
Q 1206 3584 1959 3584 
z
" transform="scale(0.015625)"/>
       <path id="DejaVuSans-79" d="M 2059 -325 
Q 1816 -950 1584 -1140 
Q 1353 -1331 966 -1331 
L 506 -1331 
L 506 -850 
L 844 -850 
Q 1081 -850 1212 -737 
Q 1344 -625 1503 -206 
L 1606 56 
L 191 3500 
L 800 3500 
L 1894 763 
L 2988 3500 
L 3597 3500 
L 2059 -325 
z
" transform="scale(0.015625)"/>
      </defs>
      <use xlink:href="#DejaVuSans-6f"/>
      <use xlink:href="#DejaVuSans-75" transform="translate(61.181641 0)"/>
      <use xlink:href="#DejaVuSans-74" transform="translate(124.560547 0)"/>
      <use xlink:href="#DejaVuSans-70" transform="translate(163.769531 0)"/>
      <use xlink:href="#DejaVuSans-75" transform="translate(227.246094 0)"/>
      <use xlink:href="#DejaVuSans-74" transform="translate(290.625 0)"/>
      <use xlink:href="#DejaVuSans-20" transform="translate(329.833984 0)"/>
      <use xlink:href="#DejaVuSans-79" transform="translate(361.621094 0)"/>
     </g>
    </g>
   </g>
   <g id="line2d_12">
    <path d="M 40.88399 246.303902 
L 54.759863 243.583577 
L 68.635737 240.647197 
L 82.51161 237.494762 
L 96.387483 234.126272 
L 110.263357 230.541727 
L 124.13923 226.741128 
L 138.015104 222.724474 
L 151.890977 218.491766 
L 165.76685 214.043002 
L 179.642724 209.378184 
L 193.518597 204.497311 
L 208.655913 198.926313 
L 223.79323 193.098192 
L 238.930546 187.012948 
L 254.067863 180.670581 
L 269.205179 174.07109 
L 284.342495 167.214477 
L 299.479812 160.100741 
L 314.617128 152.729882 
L 329.754444 145.1019 
L 344.891761 137.216795 
L 360.029077 129.074567 
L 375.166394 120.675216 
L 390.30371 112.018742 
L 405.441026 103.105145 
L 420.578343 93.934425 
L 435.715659 84.506582 
L 450.852976 74.821616 
L 465.990292 64.879527 
L 481.127608 54.680315 
L 496.264925 44.22398 
L 511.402241 33.510522 
L 526.539558 22.539941 
L 541.676874 11.312237 
L 544.19976 9.415955 
L 544.19976 9.415955 
" clip-path="url(#pa19ec1aa0e)" style="fill: none; stroke: #222222; stroke-width: 1.5; stroke-linecap: square"/>
   </g>
   <g id="line2d_13">
    <path d="M 40.88399 257.161267 
L 544.19976 20.273319 
L 544.19976 20.273319 
" clip-path="url(#pa19ec1aa0e)" style="fill: none; stroke: #295bb5; stroke-width: 1.5; stroke-linecap: square"/>
   </g>
   <g id="line2d_14">
    <path d="M 40.88399 281.837094 
L 544.19976 44.949147 
L 544.19976 44.949147 
" clip-path="url(#pa19ec1aa0e)" style="fill: none; stroke: #ad342b; stroke-width: 1.5; stroke-linecap: square"/>
   </g>
   <g id="line2d_15">
    <path d="M 40.88399 299.110174 
L 544.19976 62.222227 
L 544.19976 62.222227 
" clip-path="url(#pa19ec1aa0e)" style="fill: none; stroke-dasharray: 5.55,2.4; stroke-dashoffset: 0; stroke: #888888; stroke-width: 1.5"/>
   </g>
   <g id="patch_3">
    <path d="M 40.88399 286.77226 
L 40.88399 3.00024 
" style="fill: none; stroke: #000000; stroke-width: 0.8; stroke-linejoin: miter; stroke-linecap: square"/>
   </g>
   <g id="patch_4">
    <path d="M 40.88399 286.77226 
L 544.19976 286.77226 
" style="fill: none; stroke: #000000; stroke-width: 0.8; stroke-linejoin: miter; stroke-linecap: square"/>
   </g>
   <g id="text_14">
    <!-- a = 1 -->
    <g transform="translate(55.564033 222.615108) scale(0.12 -0.12)">
     <defs>
      <path id="DejaVuSans-61" d="M 2194 1759 
Q 1497 1759 1228 1600 
Q 959 1441 959 1056 
Q 959 750 1161 570 
Q 1363 391 1709 391 
Q 2188 391 2477 730 
Q 2766 1069 2766 1631 
L 2766 1759 
L 2194 1759 
z
M 3341 1997 
L 3341 0 
L 2766 0 
L 2766 531 
Q 2569 213 2275 61 
Q 1981 -91 1556 -91 
Q 1019 -91 701 211 
Q 384 513 384 1019 
Q 384 1609 779 1909 
Q 1175 2209 1959 2209 
L 2766 2209 
L 2766 2266 
Q 2766 2663 2505 2880 
Q 2244 3097 1772 3097 
Q 1472 3097 1187 3025 
Q 903 2953 641 2809 
L 641 3341 
Q 956 3463 1253 3523 
Q 1550 3584 1831 3584 
Q 2591 3584 2966 3190 
Q 3341 2797 3341 1997 
z
" transform="scale(0.015625)"/>
      <path id="DejaVuSans-3d" d="M 678 2906 
L 4684 2906 
L 4684 2381 
L 678 2381 
L 678 2906 
z
M 678 1631 
L 4684 1631 
L 4684 1100 
L 678 1100 
L 678 1631 
z
" transform="scale(0.015625)"/>
     </defs>
     <use xlink:href="#DejaVuSans-61"/>
     <use xlink:href="#DejaVuSans-20" transform="translate(61.279297 0)"/>
     <use xlink:href="#DejaVuSans-3d" transform="translate(93.066406 0)"/>
     <use xlink:href="#DejaVuSans-20" transform="translate(176.855469 0)"/>
     <use xlink:href="#DejaVuSans-31" transform="translate(208.642578 0)"/>
    </g>
   </g>
   <g id="text_15">
    <!-- c = 2 -->
    <g transform="translate(309.319067 191.770323) scale(0.12 -0.12)">
     <defs>
      <path id="DejaVuSans-63" d="M 3122 3366 
L 3122 2828 
Q 2878 2963 2633 3030 
Q 2388 3097 2138 3097 
Q 1578 3097 1268 2742 
Q 959 2388 959 1747 
Q 959 1106 1268 751 
Q 1578 397 2138 397 
Q 2388 397 2633 464 
Q 2878 531 3122 666 
L 3122 134 
Q 2881 22 2623 -34 
Q 2366 -91 2075 -91 
Q 1284 -91 818 406 
Q 353 903 353 1747 
Q 353 2603 823 3093 
Q 1294 3584 2113 3584 
Q 2378 3584 2631 3529 
Q 2884 3475 3122 3366 
z
" transform="scale(0.015625)"/>
     </defs>
     <use xlink:href="#DejaVuSans-63"/>
     <use xlink:href="#DejaVuSans-20" transform="translate(54.980469 0)"/>
     <use xlink:href="#DejaVuSans-3d" transform="translate(86.767578 0)"/>
     <use xlink:href="#DejaVuSans-20" transform="translate(170.556641 0)"/>
     <use xlink:href="#DejaVuSans-32" transform="translate(202.34375 0)"/>
    </g>
   </g>
   <g id="text_16">
    <!-- b = 3 -->
    <g transform="translate(418.370817 22.740902) scale(0.12 -0.12)">
     <defs>
      <path id="DejaVuSans-62" d="M 3116 1747 
Q 3116 2381 2855 2742 
Q 2594 3103 2138 3103 
Q 1681 3103 1420 2742 
Q 1159 2381 1159 1747 
Q 1159 1113 1420 752 
Q 1681 391 2138 391 
Q 2594 391 2855 752 
Q 3116 1113 3116 1747 
z
M 1159 2969 
Q 1341 3281 1617 3432 
Q 1894 3584 2278 3584 
Q 2916 3584 3314 3078 
Q 3713 2572 3713 1747 
Q 3713 922 3314 415 
Q 2916 -91 2278 -91 
Q 1894 -91 1617 61 
Q 1341 213 1159 525 
L 1159 0 
L 581 0 
L 581 4863 
L 1159 4863 
L 1159 2969 
z
" transform="scale(0.015625)"/>
     </defs>
     <use xlink:href="#DejaVuSans-62"/>
     <use xlink:href="#DejaVuSans-20" transform="translate(63.476562 0)"/>
     <use xlink:href="#DejaVuSans-3d" transform="translate(95.263672 0)"/>
     <use xlink:href="#DejaVuSans-20" transform="translate(179.052734 0)"/>
     <use xlink:href="#DejaVuSans-33" transform="translate(210.839844 0)"/>
    </g>
   </g>
   <g id="patch_5">
    <path d="M 292.541875 178.663097 
Q 292.541875 172.029083 292.541875 166.513102 
" style="fill: none; stroke: #888888; stroke-linecap: round"/>
    <path d="M 290.141875 171.313102 
L 292.541875 166.513102 
L 294.941875 171.313102 
" style="fill: none; stroke: #888888; stroke-linecap: round"/>
   </g>
   <g id="PathCollection_1">
    <defs>
     <path id="m9561d84321" d="M 0 3 
C 0.795609 3 1.55874 2.683901 2.12132 2.12132 
C 2.683901 1.55874 3 0.795609 3 0 
C 3 -0.795609 2.683901 -1.55874 2.12132 -2.12132 
C 1.55874 -2.683901 0.795609 -3 0 -3 
C -0.795609 -3 -1.55874 -2.683901 -2.12132 -2.12132 
C -2.683901 -1.55874 -3 -0.795609 -3 0 
C -3 0.795609 -2.683901 1.55874 -2.12132 2.12132 
C -1.55874 2.683901 -0.795609 3 0 3 
z
" style="stroke: #222222"/>
    </defs>
    <g clip-path="url(#pa19ec1aa0e)">
     <use xlink:href="#m9561d84321" x="82.826971" y="237.420604" style="fill: #222222; stroke: #222222"/>
     <use xlink:href="#m9561d84321" x="292.541875" y="163.393121" style="fill: #222222; stroke: #222222"/>
     <use xlink:href="#m9561d84321" x="502.256779" y="40.013982" style="fill: #222222; stroke: #222222"/>
    </g>
   </g>
   <g id="legend_1">
    <g id="line2d_16">
     <path d="M 49.88399 16.098678 
L 59.88399 16.098678 
L 69.88399 16.098678 
" style="fill: none; stroke: #222222; stroke-width: 1.5; stroke-linecap: square"/>
    </g>
    <g id="text_17">
     <!-- curve: y = x² -->
     <g transform="translate(77.88399 19.598678) scale(0.1 -0.1)">
      <defs>
       <path id="DejaVuSans-72" d="M 2631 2963 
Q 2534 3019 2420 3045 
Q 2306 3072 2169 3072 
Q 1681 3072 1420 2755 
Q 1159 2438 1159 1844 
L 1159 0 
L 581 0 
L 581 3500 
L 1159 3500 
L 1159 2956 
Q 1341 3275 1631 3429 
Q 1922 3584 2338 3584 
Q 2397 3584 2469 3576 
Q 2541 3569 2628 3553 
L 2631 2963 
z
" transform="scale(0.015625)"/>
       <path id="DejaVuSans-76" d="M 191 3500 
L 800 3500 
L 1894 563 
L 2988 3500 
L 3597 3500 
L 2284 0 
L 1503 0 
L 191 3500 
z
" transform="scale(0.015625)"/>
       <path id="DejaVuSans-65" d="M 3597 1894 
L 3597 1613 
L 953 1613 
Q 991 1019 1311 708 
Q 1631 397 2203 397 
Q 2534 397 2845 478 
Q 3156 559 3463 722 
L 3463 178 
Q 3153 47 2828 -22 
Q 2503 -91 2169 -91 
Q 1331 -91 842 396 
Q 353 884 353 1716 
Q 353 2575 817 3079 
Q 1281 3584 2069 3584 
Q 2775 3584 3186 3129 
Q 3597 2675 3597 1894 
z
M 3022 2063 
Q 3016 2534 2758 2815 
Q 2500 3097 2075 3097 
Q 1594 3097 1305 2825 
Q 1016 2553 972 2059 
L 3022 2063 
z
" transform="scale(0.015625)"/>
       <path id="DejaVuSans-3a" d="M 750 794 
L 1409 794 
L 1409 0 
L 750 0 
L 750 794 
z
M 750 3309 
L 1409 3309 
L 1409 2516 
L 750 2516 
L 750 3309 
z
" transform="scale(0.015625)"/>
       <path id="DejaVuSans-b2" d="M 838 2444 
L 2163 2444 
L 2163 2088 
L 294 2088 
L 294 2431 
Q 400 2528 597 2703 
Q 1672 3656 1672 3950 
Q 1672 4156 1509 4282 
Q 1347 4409 1081 4409 
Q 919 4409 728 4354 
Q 538 4300 313 4191 
L 313 4575 
Q 553 4663 761 4706 
Q 969 4750 1147 4750 
Q 1600 4750 1872 4544 
Q 2144 4338 2144 4000 
Q 2144 3566 1109 2678 
Q 934 2528 838 2444 
z
" transform="scale(0.015625)"/>
      </defs>
      <use xlink:href="#DejaVuSans-63"/>
      <use xlink:href="#DejaVuSans-75" transform="translate(54.980469 0)"/>
      <use xlink:href="#DejaVuSans-72" transform="translate(118.359375 0)"/>
      <use xlink:href="#DejaVuSans-76" transform="translate(159.472656 0)"/>
      <use xlink:href="#DejaVuSans-65" transform="translate(218.652344 0)"/>
      <use xlink:href="#DejaVuSans-3a" transform="translate(280.175781 0)"/>
      <use xlink:href="#DejaVuSans-20" transform="translate(313.867188 0)"/>
      <use xlink:href="#DejaVuSans-79" transform="translate(345.654297 0)"/>
      <use xlink:href="#DejaVuSans-20" transform="translate(404.833984 0)"/>
      <use xlink:href="#DejaVuSans-3d" transform="translate(436.621094 0)"/>
      <use xlink:href="#DejaVuSans-20" transform="translate(520.410156 0)"/>
      <use xlink:href="#DejaVuSans-78" transform="translate(552.197266 0)"/>
      <use xlink:href="#DejaVuSans-b2" transform="translate(611.376953 0)"/>
     </g>
    </g>
    <g id="line2d_17">
     <path d="M 49.88399 30.776803 
L 59.88399 30.776803 
L 69.88399 30.776803 
" style="fill: none; stroke: #295bb5; stroke-width: 1.5; stroke-linecap: square"/>
    </g>
    <g id="text_18">
     <!-- secant: y = 4x − 3 -->
     <g transform="translate(77.88399 34.276803) scale(0.1 -0.1)">
      <defs>
       <path id="DejaVuSans-73" d="M 2834 3397 
L 2834 2853 
Q 2591 2978 2328 3040 
Q 2066 3103 1784 3103 
Q 1356 3103 1142 2972 
Q 928 2841 928 2578 
Q 928 2378 1081 2264 
Q 1234 2150 1697 2047 
L 1894 2003 
Q 2506 1872 2764 1633 
Q 3022 1394 3022 966 
Q 3022 478 2636 193 
Q 2250 -91 1575 -91 
Q 1294 -91 989 -36 
Q 684 19 347 128 
L 347 722 
Q 666 556 975 473 
Q 1284 391 1588 391 
Q 1994 391 2212 530 
Q 2431 669 2431 922 
Q 2431 1156 2273 1281 
Q 2116 1406 1581 1522 
L 1381 1569 
Q 847 1681 609 1914 
Q 372 2147 372 2553 
Q 372 3047 722 3315 
Q 1072 3584 1716 3584 
Q 2034 3584 2315 3537 
Q 2597 3491 2834 3397 
z
" transform="scale(0.015625)"/>
       <path id="DejaVuSans-2212" d="M 678 2272 
L 4684 2272 
L 4684 1741 
L 678 1741 
L 678 2272 
z
" transform="scale(0.015625)"/>
      </defs>
      <use xlink:href="#DejaVuSans-73"/>
      <use xlink:href="#DejaVuSans-65" transform="translate(52.099609 0)"/>
      <use xlink:href="#DejaVuSans-63" transform="translate(113.623047 0)"/>
      <use xlink:href="#DejaVuSans-61" transform="translate(168.603516 0)"/>
      <use xlink:href="#DejaVuSans-6e" transform="translate(229.882812 0)"/>
      <use xlink:href="#DejaVuSans-74" transform="translate(293.261719 0)"/>
      <use xlink:href="#DejaVuSans-3a" transform="translate(332.470703 0)"/>
      <use xlink:href="#DejaVuSans-20" transform="translate(366.162109 0)"/>
      <use xlink:href="#DejaVuSans-79" transform="translate(397.949219 0)"/>
      <use xlink:href="#DejaVuSans-20" transform="translate(457.128906 0)"/>
      <use xlink:href="#DejaVuSans-3d" transform="translate(488.916016 0)"/>
      <use xlink:href="#DejaVuSans-20" transform="translate(572.705078 0)"/>
      <use xlink:href="#DejaVuSans-34" transform="translate(604.492188 0)"/>
      <use xlink:href="#DejaVuSans-78" transform="translate(668.115234 0)"/>
      <use xlink:href="#DejaVuSans-20" transform="translate(727.294922 0)"/>
      <use xlink:href="#DejaVuSans-2212" transform="translate(759.082031 0)"/>
      <use xlink:href="#DejaVuSans-20" transform="translate(842.871094 0)"/>
      <use xlink:href="#DejaVuSans-33" transform="translate(874.658203 0)"/>
     </g>
    </g>
    <g id="line2d_18">
     <path d="M 49.88399 45.454927 
L 59.88399 45.454927 
L 69.88399 45.454927 
" style="fill: none; stroke: #ad342b; stroke-width: 1.5; stroke-linecap: square"/>
    </g>
    <g id="text_19">
     <!-- tangent: y = 4x − 4 -->
     <g transform="translate(77.88399 48.954927) scale(0.1 -0.1)">
      <defs>
       <path id="DejaVuSans-67" d="M 2906 1791 
Q 2906 2416 2648 2759 
Q 2391 3103 1925 3103 
Q 1463 3103 1205 2759 
Q 947 2416 947 1791 
Q 947 1169 1205 825 
Q 1463 481 1925 481 
Q 2391 481 2648 825 
Q 2906 1169 2906 1791 
z
M 3481 434 
Q 3481 -459 3084 -895 
Q 2688 -1331 1869 -1331 
Q 1566 -1331 1297 -1286 
Q 1028 -1241 775 -1147 
L 775 -588 
Q 1028 -725 1275 -790 
Q 1522 -856 1778 -856 
Q 2344 -856 2625 -561 
Q 2906 -266 2906 331 
L 2906 616 
Q 2728 306 2450 153 
Q 2172 0 1784 0 
Q 1141 0 747 490 
Q 353 981 353 1791 
Q 353 2603 747 3093 
Q 1141 3584 1784 3584 
Q 2172 3584 2450 3431 
Q 2728 3278 2906 2969 
L 2906 3500 
L 3481 3500 
L 3481 434 
z
" transform="scale(0.015625)"/>
      </defs>
      <use xlink:href="#DejaVuSans-74"/>
      <use xlink:href="#DejaVuSans-61" transform="translate(39.208984 0)"/>
      <use xlink:href="#DejaVuSans-6e" transform="translate(100.488281 0)"/>
      <use xlink:href="#DejaVuSans-67" transform="translate(163.867188 0)"/>
      <use xlink:href="#DejaVuSans-65" transform="translate(227.34375 0)"/>
      <use xlink:href="#DejaVuSans-6e" transform="translate(288.867188 0)"/>
      <use xlink:href="#DejaVuSans-74" transform="translate(352.246094 0)"/>
      <use xlink:href="#DejaVuSans-3a" transform="translate(391.455078 0)"/>
      <use xlink:href="#DejaVuSans-20" transform="translate(425.146484 0)"/>
      <use xlink:href="#DejaVuSans-79" transform="translate(456.933594 0)"/>
      <use xlink:href="#DejaVuSans-20" transform="translate(516.113281 0)"/>
      <use xlink:href="#DejaVuSans-3d" transform="translate(547.900391 0)"/>
      <use xlink:href="#DejaVuSans-20" transform="translate(631.689453 0)"/>
      <use xlink:href="#DejaVuSans-34" transform="translate(663.476562 0)"/>
      <use xlink:href="#DejaVuSans-78" transform="translate(727.099609 0)"/>
      <use xlink:href="#DejaVuSans-20" transform="translate(786.279297 0)"/>
      <use xlink:href="#DejaVuSans-2212" transform="translate(818.066406 0)"/>
      <use xlink:href="#DejaVuSans-20" transform="translate(901.855469 0)"/>
      <use xlink:href="#DejaVuSans-34" transform="translate(933.642578 0)"/>
     </g>
    </g>
    <g id="line2d_19">
     <path d="M 49.88399 60.133053 
L 59.88399 60.133053 
L 69.88399 60.133053 
" style="fill: none; stroke-dasharray: 5.55,2.4; stroke-dashoffset: 0; stroke: #888888; stroke-width: 1.5"/>
    </g>
    <g id="text_20">
     <!-- parallel line below contact -->
     <g transform="translate(77.88399 63.633053) scale(0.1 -0.1)">
      <defs>
       <path id="DejaVuSans-6c" d="M 603 4863 
L 1178 4863 
L 1178 0 
L 603 0 
L 603 4863 
z
" transform="scale(0.015625)"/>
       <path id="DejaVuSans-77" d="M 269 3500 
L 844 3500 
L 1563 769 
L 2278 3500 
L 2956 3500 
L 3675 769 
L 4391 3500 
L 4966 3500 
L 4050 0 
L 3372 0 
L 2619 2869 
L 1863 0 
L 1184 0 
L 269 3500 
z
" transform="scale(0.015625)"/>
      </defs>
      <use xlink:href="#DejaVuSans-70"/>
      <use xlink:href="#DejaVuSans-61" transform="translate(63.476562 0)"/>
      <use xlink:href="#DejaVuSans-72" transform="translate(124.755859 0)"/>
      <use xlink:href="#DejaVuSans-61" transform="translate(165.869141 0)"/>
      <use xlink:href="#DejaVuSans-6c" transform="translate(227.148438 0)"/>
      <use xlink:href="#DejaVuSans-6c" transform="translate(254.931641 0)"/>
      <use xlink:href="#DejaVuSans-65" transform="translate(282.714844 0)"/>
      <use xlink:href="#DejaVuSans-6c" transform="translate(344.238281 0)"/>
      <use xlink:href="#DejaVuSans-20" transform="translate(372.021484 0)"/>
      <use xlink:href="#DejaVuSans-6c" transform="translate(403.808594 0)"/>
      <use xlink:href="#DejaVuSans-69" transform="translate(431.591797 0)"/>
      <use xlink:href="#DejaVuSans-6e" transform="translate(459.375 0)"/>
      <use xlink:href="#DejaVuSans-65" transform="translate(522.753906 0)"/>
      <use xlink:href="#DejaVuSans-20" transform="translate(584.277344 0)"/>
      <use xlink:href="#DejaVuSans-62" transform="translate(616.064453 0)"/>
      <use xlink:href="#DejaVuSans-65" transform="translate(679.541016 0)"/>
      <use xlink:href="#DejaVuSans-6c" transform="translate(741.064453 0)"/>
      <use xlink:href="#DejaVuSans-6f" transform="translate(768.847656 0)"/>
      <use xlink:href="#DejaVuSans-77" transform="translate(830.029297 0)"/>
      <use xlink:href="#DejaVuSans-20" transform="translate(911.816406 0)"/>
      <use xlink:href="#DejaVuSans-63" transform="translate(943.603516 0)"/>
      <use xlink:href="#DejaVuSans-6f" transform="translate(998.583984 0)"/>
      <use xlink:href="#DejaVuSans-6e" transform="translate(1059.765625 0)"/>
      <use xlink:href="#DejaVuSans-74" transform="translate(1123.144531 0)"/>
      <use xlink:href="#DejaVuSans-61" transform="translate(1162.353516 0)"/>
      <use xlink:href="#DejaVuSans-63" transform="translate(1223.632812 0)"/>
      <use xlink:href="#DejaVuSans-74" transform="translate(1278.613281 0)"/>
     </g>
    </g>
   </g>
  </g>
 </g>
 <defs>
  <clipPath id="pa19ec1aa0e">
   <rect x="40.88399" y="3.00024" width="503.31577" height="283.77202"/>
  </clipPath>
 </defs>
</svg>
